<?xml version="1.0" standalone="no"?>
<!DOCTYPE svg PUBLIC "-//W3C//DTD SVG 20010904//EN"
 "http://www.w3.org/TR/2001/REC-SVG-20010904/DTD/svg10.dtd">
<svg version="1.0" xmlns="http://www.w3.org/2000/svg"
 width="1300.000000pt" height="1300.000000pt" viewBox="0 0 1300.000000 1300.000000"
 preserveAspectRatio="xMidYMid meet">
<metadata>
Created by potrace 1.11, written by Peter Selinger 2001-2013
</metadata>
<g transform="translate(0.000000,1300.000000) scale(0.100000,-0.100000)"
fill="#000000" stroke="none">
<path d="M3336 8845 c-9 -26 -7 -32 5 -12 6 10 9 21 6 23 -2 3 -7 -2 -11 -11z"/>
<path d="M5121 7679 c-24 -10 -57 -26 -75 -33 -17 -8 -76 -33 -131 -56 -55
-23 -129 -54 -165 -70 -36 -16 -123 -53 -195 -84 -282 -118 -493 -209 -565
-240 l-75 -33 -3 -446 -2 -445 101 -119 c138 -162 126 -151 138 -122 5 13 10
17 10 9 0 -8 -3 -21 -8 -29 -6 -9 -4 -19 5 -28 11 -11 44 -14 147 -13 72 1
188 -1 257 -4 69 -3 219 -8 334 -10 239 -5 198 -15 471 108 94 43 202 90 240
107 76 32 75 30 225 204 57 66 107 122 110 125 4 3 36 39 71 80 35 41 94 108
132 149 l67 75 -30 31 c-17 17 -28 34 -25 37 3 2 -5 13 -17 24 l-23 19 20 -25
c23 -30 -201 189 -483 473 -195 196 -219 221 -207 215 2 -2 155 -153 340 -337
184 -184 335 -332 335 -328 0 4 -20 33 -45 65 -25 31 -49 62 -53 67 -4 6 -30
38 -57 71 -28 34 -70 87 -95 119 -25 31 -58 74 -75 95 -16 21 -48 61 -70 89
-90 116 -72 106 -355 206 -36 13 -95 35 -133 49 -37 14 -68 26 -70 25 -1 0
-22 -9 -46 -20z m-1171 -743 c0 -2 -7 -7 -16 -10 -8 -3 -12 -2 -9 4 6 10 25
14 25 6z m223 -223 c-5 -12 -2 -15 10 -10 11 4 14 2 10 -9 -5 -14 -7 -14 -21
-1 -8 8 -11 20 -8 26 11 17 16 13 9 -6z m88 -60 c13 -16 12 -17 -3 -4 -10 7
-18 15 -18 17 0 8 8 3 21 -13z m4 -33 c3 -5 1 -10 -4 -10 -6 0 -11 5 -11 10 0
6 2 10 4 10 3 0 8 -4 11 -10z m85 -80 c0 -5 -2 -10 -4 -10 -3 0 -8 5 -11 10
-3 6 -1 10 4 10 6 0 11 -4 11 -10z m-354 -307 c0 -23 -1 -43 -2 -43 -2 0 -12
14 -24 30 -16 23 -19 34 -11 44 22 26 37 14 37 -31z m65 -90 c-12 -20 -14 -14
-5 12 4 9 9 14 11 11 3 -2 0 -13 -6 -23z m256 -159 c-3 -3 -12 -4 -19 -1 -8 3
-5 6 6 6 11 1 17 -2 13 -5z"/>
<path d="M3965 6260 c-3 -5 0 -19 8 -30 14 -20 15 -20 15 5 0 28 -13 41 -23
25z"/>
<path d="M7705 7550 c-5 -8 -518 -424 -566 -459 -19 -14 -28 -57 -9 -46 7 4 9
-3 5 -22 -6 -27 -6 -27 10 -8 17 20 17 19 9 -5 -4 -14 -8 -34 -7 -45 1 -45 25
-181 34 -191 5 -6 7 -13 4 -15 -2 -3 4 -45 15 -94 10 -50 26 -135 35 -190 10
-55 20 -104 23 -109 3 -5 6 -21 7 -35 2 -25 33 -192 41 -220 3 -9 12 -11 29
-7 15 4 27 1 32 -7 10 -17 117 -60 153 -61 15 -1 26 -4 24 -8 -2 -3 10 -11 26
-17 24 -8 29 -7 24 2 -4 7 1 5 12 -4 10 -9 25 -14 33 -11 9 3 11 0 6 -8 -6
-10 -2 -12 13 -8 12 4 20 3 17 -2 -9 -14 47 -22 57 -8 7 10 9 9 5 -4 -4 -12 3
-19 24 -27 16 -6 36 -8 44 -5 7 3 22 1 32 -6 16 -9 15 -10 -7 -5 -19 5 -22 4
-10 -4 8 -6 26 -9 40 -6 14 3 32 0 40 -6 12 -8 10 -9 -7 -4 -13 3 -23 4 -23 2
0 -8 152 -59 158 -53 3 3 -2 6 -11 6 -9 0 -19 4 -22 10 -4 6 1 7 11 3 14 -5
16 -1 11 28 -3 19 -11 72 -17 119 -6 47 -16 104 -21 126 -14 67 -23 187 -13
183 51 -23 112 -54 124 -64 8 -6 53 -32 100 -56 47 -24 87 -47 90 -50 5 -5
231 -131 459 -255 25 -14 48 -21 52 -17 3 5 32 80 64 168 73 202 99 274 167
456 l54 146 -88 169 c-49 93 -107 205 -129 250 l-40 81 -92 36 c-91 35 -403
151 -667 249 -74 27 -175 65 -223 84 -92 35 -122 41 -132 24z m-370 -700 c3
-6 -1 -7 -9 -4 -18 7 -21 14 -7 14 6 0 13 -4 16 -10z m84 -47 c2 -2 2 -5 -1
-8 -2 -3 -20 12 -39 33 l-34 37 35 -30 c19 -17 37 -31 39 -32z m141 -127 c0
-3 -8 -12 -17 -22 -13 -13 -14 -19 -5 -22 16 -5 15 -19 -1 -25 -19 -7 -15 52
4 64 16 10 19 11 19 5z m14 -31 c-6 -15 11 -22 19 -7 2 4 2 1 0 -7 -2 -8 2
-18 9 -23 8 -4 8 -8 2 -8 -17 0 -47 37 -39 49 9 16 15 13 9 -4z m-337 -37 c-3
-7 -5 -2 -5 12 0 14 2 19 5 13 2 -7 2 -19 0 -25z m30 -10 c-3 -7 -5 -2 -5 12
0 14 2 19 5 13 2 -7 2 -19 0 -25z m-20 -30 c-3 -8 -6 -5 -6 6 -1 11 2 17 5 13
3 -3 4 -12 1 -19z m33 -63 c0 -5 -5 -3 -10 5 -5 8 -10 20 -10 25 0 6 5 3 10
-5 5 -8 10 -19 10 -25z m494 -30 c-4 -8 -2 -15 4 -15 6 0 13 6 15 13 4 9 6 9
6 0 1 -17 -19 -27 -31 -15 -6 6 -7 15 -4 21 10 16 16 13 10 -4z m121 -105 c-3
-5 -12 -10 -18 -10 -7 0 -6 4 3 10 19 12 23 12 15 0z m50 -30 c3 -5 1 -10 -4
-10 -6 0 -11 5 -11 10 0 6 2 10 4 10 3 0 8 -4 11 -10z m-628 -192 c-3 -8 -6
-5 -6 6 -1 11 2 17 5 13 3 -3 4 -12 1 -19z m100 -44 c-3 -3 -12 -4 -19 -1 -8
3 -5 6 6 6 11 1 17 -2 13 -5z m40 -10 c-3 -3 -12 -4 -19 -1 -8 3 -5 6 6 6 11
1 17 -2 13 -5z m43 2 c0 -11 -19 -15 -25 -6 -3 5 1 10 9 10 9 0 16 -2 16 -4z"/>
<path d="M3697 7319 c7 -7 15 -10 18 -7 3 3 -2 9 -12 12 -14 6 -15 5 -6 -5z"/>
<path d="M3626 7103 c-6 -14 -5 -15 5 -6 7 7 10 15 7 18 -3 3 -9 -2 -12 -12z"/>
<path d="M3416 6523 c-6 -14 -5 -15 5 -6 7 7 10 15 7 18 -3 3 -9 -2 -12 -12z"/>
<path d="M6460 6334 c0 -5 -13 -23 -28 -40 -31 -36 -152 -177 -268 -314 l-80
-95 -73 -295 c-39 -162 -74 -302 -77 -311 -3 -10 12 -37 37 -65 22 -27 60 -71
82 -98 23 -28 58 -68 78 -90 19 -23 49 -57 66 -76 16 -19 52 -60 79 -91 27
-30 58 -66 69 -80 89 -107 190 -219 197 -219 5 0 7 -4 4 -9 -3 -4 5 -18 18
-30 l22 -21 200 206 c109 114 202 212 206 218 3 6 22 71 42 144 34 127 36 138
27 210 -13 95 -18 138 -32 272 -9 89 -18 123 -61 225 l-50 120 -166 167 c-92
92 -168 165 -170 163 -2 -2 -20 15 -39 36 -20 22 -42 38 -49 35 -8 -3 -11 0
-8 8 3 7 -2 19 -11 26 -8 7 -15 9 -15 4z m51 -79 c11 6 11 5 2 -5 -12 -14 -33
-6 -33 13 0 8 3 7 9 -2 5 -8 14 -10 22 -6z m-4 -357 c-2 -13 -4 -3 -4 22 0 25
2 35 4 23 2 -13 2 -33 0 -45z m10 -200 c-3 -8 -6 -5 -6 6 -1 11 2 17 5 13 3
-3 4 -12 1 -19z m10 -80 c-3 -8 -6 -5 -6 6 -1 11 2 17 5 13 3 -3 4 -12 1 -19z
m10 -240 c-2 -13 -4 -3 -4 22 0 25 2 35 4 23 2 -13 2 -33 0 -45z m20 -320 c-3
-8 -6 -5 -6 6 -1 11 2 17 5 13 3 -3 4 -12 1 -19z"/>
<path d="M3241 6053 c7 -12 15 -20 18 -17 3 2 -3 12 -13 22 -17 16 -18 16 -5
-5z"/>
<path d="M3216 6031 c-4 -5 -2 -12 4 -16 5 -3 10 -3 10 2 0 4 5 1 10 -7 5 -8
10 -10 10 -4 0 17 -27 37 -34 25z"/>
<path d="M3274 6028 c-11 -17 6 -22 22 -7 13 14 13 16 -1 16 -9 0 -18 -4 -21
-9z"/>
<path d="M3335 6000 c10 -11 20 -20 23 -20 3 0 -3 9 -13 20 -10 11 -20 20 -23
20 -3 0 3 -9 13 -20z"/>
<path d="M3309 5998 c-5 -19 -8 -50 -4 -46 7 7 15 48 9 48 -2 0 -4 -1 -5 -2z"/>
<path d="M3329 5963 c0 -5 -2 -16 -4 -26 -2 -11 -1 -16 3 -13 8 8 14 46 7 46
-3 0 -5 -3 -6 -7z"/>
<path d="M3354 5949 c-8 -14 14 -19 25 -6 8 10 7 14 -5 14 -8 0 -17 -4 -20 -8z"/>
<path d="M3295 5920 c10 -11 20 -20 23 -20 3 0 -3 9 -13 20 -10 11 -20 20 -23
20 -3 0 3 -9 13 -20z"/>
<path d="M3415 5920 c10 -11 20 -20 23 -20 3 0 -3 9 -13 20 -10 11 -20 20 -23
20 -3 0 3 -9 13 -20z"/>
<path d="M3389 5915 c-1 -3 -2 -8 -3 -12 -1 -5 -5 -14 -9 -20 -5 -8 -4 -13 2
-13 6 0 11 3 12 8 0 4 2 15 4 25 3 15 -3 26 -6 12z"/>
<path d="M3182 5890 c0 -14 2 -19 5 -12 2 6 2 18 0 25 -3 6 -5 1 -5 -13z"/>
<path d="M3341 5896 c-10 -11 -9 -14 1 -12 14 2 23 15 15 22 -2 2 -10 -2 -16
-10z"/>
<path d="M3397 5869 c-10 -11 -23 -17 -29 -13 -6 4 -8 3 -5 -3 12 -18 50 -8
54 15 3 26 3 26 -20 1z"/>
<path d="M3633 4830 c4 -14 12 -59 17 -100 6 -41 24 -158 40 -260 16 -102 45
-288 65 -415 20 -126 38 -241 41 -254 l5 -24 32 29 32 29 -33 -36 -33 -36 20
-119 c33 -197 64 -396 69 -441 2 -24 7 -41 12 -38 4 2 5 -7 2 -20 -5 -30 6
-31 50 -7 18 10 54 30 80 45 25 14 64 37 86 51 22 14 43 22 47 18 5 -4 5 1 2
10 -4 12 -2 15 9 11 16 -6 67 24 60 35 -2 4 6 8 17 8 12 1 50 19 85 40 59 37
63 41 57 69 -3 17 -9 61 -12 100 -4 38 -9 62 -12 53 -3 -10 -6 19 -6 63 0 56
-5 83 -14 88 -7 5 -10 14 -6 21 6 10 0 72 -25 230 -5 30 -12 93 -16 139 -4 54
-9 79 -15 70 -6 -9 -7 -3 -3 17 4 20 0 43 -10 62 -18 36 -20 46 -6 37 17 -10
11 49 -7 75 -13 18 -17 46 -18 111 0 48 3 85 7 82 5 -2 8 0 8 5 0 12 -77 25
-92 16 -7 -5 -8 -2 -3 6 6 10 1 12 -26 7 -21 -5 -29 -4 -20 2 10 6 -2 12 -40
19 -30 6 -61 11 -69 11 -59 1 -145 41 -225 103 -30 23 -106 78 -130 94 l-29
19 7 -25z m292 -210 c3 -5 1 -10 -4 -10 -6 0 -11 5 -11 10 0 6 2 10 4 10 3 0
8 -4 11 -10z m122 4 c-3 -3 -12 -4 -19 -1 -8 3 -5 6 6 6 11 1 17 -2 13 -5z
m-150 -386 c-2 -24 -4 -5 -4 42 0 47 2 66 4 43 2 -24 2 -62 0 -85z m373 92 c0
-5 -2 -10 -4 -10 -3 0 -8 5 -11 10 -3 6 -1 10 4 10 6 0 11 -4 11 -10z m-12
-81 c-3 -20 -5 -19 -9 9 -3 20 -2 29 4 23 5 -5 7 -19 5 -32z m-1 -151 c-3 -8
-6 -5 -6 6 -1 11 2 17 5 13 3 -3 4 -12 1 -19z m20 -50 c-3 -7 -5 -2 -5 12 0
14 2 19 5 13 2 -7 2 -19 0 -25z m-374 -62 c3 -30 1 -43 -4 -35 -8 13 -13 97
-5 88 2 -2 6 -26 9 -53z m12 -115 c3 -5 2 -12 -3 -15 -5 -3 -9 1 -9 9 0 17 3
19 12 6z m422 -203 c-3 -7 -5 -2 -5 12 0 14 2 19 5 13 2 -7 2 -19 0 -25z
m-430 -195 c-3 -10 -5 -2 -5 17 0 19 2 27 5 18 2 -10 2 -26 0 -35z m440 -15
c-3 -8 -6 -5 -6 6 -1 11 2 17 5 13 3 -3 4 -12 1 -19z m-436 -75 c-12 -20 -14
-14 -5 12 4 9 9 14 11 11 3 -2 0 -13 -6 -23z"/>
<path d="M8520 4563 c-25 -26 -31 -35 -13 -19 19 17 36 25 44 21 8 -5 10 -4 5
4 -4 6 -2 18 4 26 27 33 1 12 -40 -32z"/>
<path d="M4317 4535 c-4 -27 -9 -63 -12 -80 -3 -16 2 -7 10 20 8 28 14 64 12
80 -1 23 -4 18 -10 -20z"/>
<path d="M8389 4541 c11 -7 11 -9 0 -14 -8 -3 -4 -4 8 -4 17 1 19 4 11 14 -6
7 -16 13 -22 13 -6 0 -5 -4 3 -9z"/>
<path d="M8445 4521 c3 -5 -1 -11 -7 -14 -10 -4 -11 -7 0 -18 10 -11 12 -10
12 3 0 9 5 18 12 20 7 3 5 7 -6 11 -9 4 -15 3 -11 -2z"/>
<path d="M4310 4418 c0 -4 16 -23 35 -42 19 -20 35 -33 35 -28 0 4 -16 23 -35
42 -19 19 -35 31 -35 28z"/>
<path d="M4420 4301 c0 -5 7 -12 16 -15 14 -5 15 -4 4 9 -14 17 -20 19 -20 6z"/>
<path d="M4440 4185 c30 -33 56 -62 58 -64 1 -2 4 -2 7 0 2 3 -24 32 -58 65
l-62 59 55 -60z"/>
<path d="M4520 4100 c0 -5 5 -10 11 -10 5 0 7 5 4 10 -3 6 -8 10 -11 10 -2 0
-4 -4 -4 -10z"/>
<path d="M4566 4043 c-6 -14 -5 -15 5 -6 7 7 10 15 7 18 -3 3 -9 -2 -12 -12z"/>
<path d="M4596 4017 c3 -10 9 -15 12 -12 3 3 0 11 -7 18 -10 9 -11 8 -5 -6z"/>
<path d="M5140 3276 c0 -2 8 -10 18 -17 15 -13 16 -12 3 4 -13 16 -21 21 -21
13z"/>
<path d="M5538 1213 c6 -2 12 -11 12 -18 0 -7 8 -16 18 -18 14 -4 14 -5 -3 -6
-18 -1 -17 -3 5 -14 14 -7 45 -19 70 -27 25 -7 51 -18 58 -23 7 -5 12 -6 12 0
0 9 -165 114 -178 112 -4 0 -1 -3 6 -6z"/>
<path d="M7440 1193 c-25 -14 -56 -34 -69 -44 -23 -18 -23 -19 -3 -19 11 0 22
6 24 12 3 7 12 13 21 13 9 0 16 3 14 8 -1 4 13 16 31 27 17 11 32 22 32 25 0
7 2 7 -50 -22z"/>
<path d="M7140 1115 c-102 -7 -291 -20 -420 -30 -129 -9 -293 -20 -365 -25
-71 -5 -152 -9 -179 -10 -27 0 -47 -2 -44 -5 7 -7 362 -22 368 -15 3 3 75 6
160 8 186 3 450 26 539 47 36 9 71 13 78 10 8 -2 11 -1 8 5 -3 5 11 7 32 5 21
-3 29 -2 19 1 -15 5 -16 8 -5 15 8 5 10 8 4 7 -5 0 -93 -6 -195 -13z"/>
</g>
</svg>
